<svg xmlns="http://www.w3.org/2000/svg" xmlns:xlink="http://www.w3.org/1999/xlink" width="120" zoomAndPan="magnify" viewBox="0 0 90.75 90.75" height="120" preserveAspectRatio="xMidYMid meet" version="1.0"><defs><clipPath id="bc5b61987f"><path d="M 0 0 L 90.5 0 L 90.5 90.5 L 0 90.5 Z M 0 0 " clip-rule="nonzero"/></clipPath></defs><g clip-path="url(#bc5b61987f)"><path fill="#FFF" d="M 45.375 0 C 20.316406 0 0 20.316406 0 45.375 C 0 70.433594 20.316406 90.75 45.375 90.75 C 70.433594 90.75 90.75 70.433594 90.75 45.375 C 90.75 20.316406 70.433594 0 45.375 0 Z M 74.136719 25.878906 L 65.867188 25.878906 C 64.914062 21.886719 63.683594 18.21875 62.21875 14.976562 C 65.015625 16.53125 67.613281 18.484375 69.941406 20.808594 C 71.511719 22.382812 72.914062 24.078125 74.136719 25.878906 Z M 80.113281 45.375 C 80.113281 48.40625 79.726562 51.378906 78.976562 54.238281 L 67.628906 54.238281 C 67.914062 51.371094 68.0625 48.410156 68.0625 45.375 C 68.0625 42.339844 67.914062 39.378906 67.628906 36.511719 L 78.976562 36.511719 C 79.726562 39.371094 80.113281 42.34375 80.113281 45.375 Z M 45.375 80.113281 C 44.453125 80.113281 41.644531 78.304688 38.84375 72.703125 C 37.683594 70.382812 36.691406 67.742188 35.875 64.871094 L 54.875 64.871094 C 54.058594 67.742188 53.066406 70.382812 51.90625 72.703125 C 49.105469 78.304688 46.296875 80.113281 45.375 80.113281 Z M 33.820312 54.238281 C 33.492188 51.359375 33.320312 48.382812 33.320312 45.375 C 33.320312 42.367188 33.492188 39.390625 33.820312 36.511719 L 56.929688 36.511719 C 57.257812 39.390625 57.425781 42.367188 57.425781 45.375 C 57.425781 48.382812 57.257812 51.359375 56.929688 54.238281 Z M 10.632812 45.375 C 10.632812 42.34375 11.023438 39.371094 11.773438 36.511719 L 23.121094 36.511719 C 22.835938 39.378906 22.6875 42.339844 22.6875 45.375 C 22.6875 48.410156 22.835938 51.371094 23.121094 54.238281 L 11.773438 54.238281 C 11.023438 51.378906 10.632812 48.40625 10.632812 45.375 Z M 45.375 10.636719 C 46.296875 10.636719 49.105469 12.445312 51.90625 18.046875 C 53.066406 20.367188 54.058594 23.007812 54.875 25.878906 L 35.875 25.878906 C 36.691406 23.007812 37.683594 20.367188 38.84375 18.046875 C 41.644531 12.445312 44.453125 10.636719 45.375 10.636719 Z M 28.53125 14.976562 C 27.066406 18.21875 25.835938 21.886719 24.882812 25.878906 L 16.613281 25.878906 C 17.835938 24.078125 19.238281 22.382812 20.808594 20.808594 C 23.136719 18.484375 25.734375 16.53125 28.53125 14.976562 Z M 16.613281 64.871094 L 24.882812 64.871094 C 25.835938 68.863281 27.066406 72.53125 28.53125 75.773438 C 25.734375 74.21875 23.136719 72.265625 20.808594 69.941406 C 19.238281 68.367188 17.835938 66.671875 16.613281 64.871094 Z M 62.21875 75.773438 C 63.683594 72.53125 64.914062 68.863281 65.867188 64.871094 L 74.136719 64.871094 C 72.914062 66.671875 71.511719 68.367188 69.941406 69.941406 C 67.613281 72.265625 65.015625 74.21875 62.21875 75.773438 Z M 62.21875 75.773438 " fill-opacity="1" fill-rule="nonzero"/></g></svg>