<svg xmlns="http://www.w3.org/2000/svg" xmlns:xlink="http://www.w3.org/1999/xlink" width="120" zoomAndPan="magnify" viewBox="0 0 90.75 90.75" height="120" preserveAspectRatio="xMidYMid meet" version="1.0"><defs><clipPath id="53c92b79ec"><path d="M 0.101562 0 L 90.5 0 L 90.5 90.5 L 0.101562 90.5 Z M 0.101562 0 " clip-rule="nonzero"/></clipPath></defs><g clip-path="url(#53c92b79ec)"><path fill="#FFF" d="M 61.507812 61.4375 L 83.292969 61.4375 C 77.84375 74.355469 66.195312 83.597656 52.390625 85.996094 C 56.726562 78.351562 59.796875 70.054688 61.507812 61.4375 Z M 33.445312 61.4375 L 57.304688 61.4375 C 55.769531 68.785156 53.179688 75.867188 49.636719 82.472656 C 48.375 84.820312 45.4375 85.707031 43.085938 84.441406 C 42.25 83.992188 41.566406 83.308594 41.113281 82.472656 C 37.570312 75.867188 34.980469 68.785156 33.445312 61.4375 Z M 7.457031 61.4375 L 29.242188 61.4375 C 30.953125 70.054688 34.03125 78.351562 38.359375 85.996094 C 24.546875 83.597656 12.90625 74.355469 7.457031 61.4375 Z M 62.207031 33.542969 L 84.777344 33.542969 C 87.109375 41.300781 87.109375 49.574219 84.777344 57.320312 L 62.207031 57.320312 C 63.363281 49.445312 63.363281 41.429688 62.207031 33.542969 Z M 32.707031 33.542969 L 58.050781 33.542969 C 59.265625 41.421875 59.265625 49.445312 58.050781 57.320312 L 32.707031 57.320312 C 31.492188 49.445312 31.492188 41.421875 32.707031 33.542969 Z M 5.980469 33.542969 L 28.542969 33.542969 C 27.386719 41.429688 27.386719 49.445312 28.542969 57.320312 L 5.980469 57.320312 C 3.632812 49.574219 3.632812 41.300781 5.980469 33.542969 Z M 45.269531 5.851562 C 47.085938 5.8125 48.765625 6.792969 49.636719 8.398438 C 53.179688 15 55.769531 22.089844 57.304688 29.429688 L 33.445312 29.429688 C 34.980469 22.089844 37.570312 15 41.113281 8.398438 C 41.941406 6.863281 43.527344 5.890625 45.269531 5.851562 Z M 52.390625 4.878906 C 66.195312 7.265625 77.84375 16.519531 83.292969 29.429688 L 61.507812 29.429688 C 59.796875 20.8125 56.726562 12.523438 52.390625 4.878906 Z M 38.359375 4.878906 C 34.03125 12.523438 30.953125 20.8125 29.242188 29.429688 L 7.457031 29.429688 C 12.90625 16.519531 24.546875 7.265625 38.359375 4.878906 Z M 44.203125 0.0234375 C 19.605469 0.660156 0.0234375 20.828125 0.101562 45.433594 C 0.101562 70.441406 20.375 90.703125 45.375 90.703125 C 70.382812 90.703125 90.648438 70.441406 90.648438 45.433594 C 90.734375 20.433594 70.535156 0.0976562 45.527344 0.0078125 C 45.085938 0.0078125 44.652344 0.015625 44.203125 0.0234375 " fill-opacity="1" fill-rule="nonzero"/></g></svg>