<svg xmlns="http://www.w3.org/2000/svg" xmlns:xlink="http://www.w3.org/1999/xlink" width="120" zoomAndPan="magnify" viewBox="0 0 90.75 90.75" height="120" preserveAspectRatio="xMidYMid meet" version="1.0"><defs><clipPath id="b8ad265131"><path d="M 0 0 L 90.5 0 L 90.5 90.5 L 0 90.5 Z M 0 0 " clip-rule="nonzero"/></clipPath></defs><g clip-path="url(#b8ad265131)"><path fill="#FFF" d="M 10.082031 0 C 4.523438 0 0 4.523438 0 10.082031 L 0 80.667969 C 0 86.226562 4.523438 90.75 10.082031 90.75 L 80.667969 90.75 C 86.226562 90.75 90.75 86.226562 90.75 80.667969 L 90.75 10.082031 C 90.75 4.523438 86.226562 0 80.667969 0 Z M 10.082031 10.082031 L 80.667969 10.082031 L 80.675781 80.667969 L 57.546875 80.667969 L 57.546875 60.675781 L 69.46875 60.675781 L 71.242188 46.941406 L 57.625 46.941406 L 57.625 38.1875 C 57.625 34.214844 58.730469 31.53125 64.429688 31.53125 L 71.628906 31.53125 L 71.628906 19.269531 C 68.125 18.914062 64.605469 18.738281 61.082031 18.75 C 50.625 18.75 43.464844 25.128906 43.464844 36.847656 L 43.464844 46.960938 L 31.648438 46.960938 L 31.648438 60.695312 L 43.464844 60.695312 L 43.464844 80.667969 L 10.082031 80.667969 Z M 10.082031 10.082031 " fill-opacity="1" fill-rule="nonzero"/></g></svg>