<svg xmlns="http://www.w3.org/2000/svg" xmlns:xlink="http://www.w3.org/1999/xlink" width="120" zoomAndPan="magnify" viewBox="0 0 90.75 90.75" height="120" preserveAspectRatio="xMidYMid meet" version="1.0"><defs><clipPath id="9b1df911da"><path d="M 0 0 L 90.5 0 L 90.5 90.5 L 0 90.5 Z M 0 0 " clip-rule="nonzero"/></clipPath></defs><g clip-path="url(#9b1df911da)"><path fill="#FFF" d="M 45.355469 8.183594 C 57.464844 8.183594 58.894531 8.222656 63.6875 8.441406 C 68.101562 8.640625 70.507812 9.375 72.117188 10.011719 C 74.226562 10.828125 75.738281 11.820312 77.328125 13.410156 C 78.917969 15.003906 79.894531 16.511719 80.730469 18.621094 C 81.34375 20.210938 82.082031 22.617188 82.300781 27.050781 C 82.519531 31.84375 82.558594 33.277344 82.558594 45.386719 C 82.558594 57.496094 82.519531 58.925781 82.300781 63.71875 C 82.101562 68.132812 81.363281 70.539062 80.730469 72.148438 C 79.914062 74.257812 78.917969 75.765625 77.328125 77.359375 C 75.738281 78.949219 74.226562 79.921875 72.117188 80.757812 C 70.527344 81.375 68.121094 82.109375 63.6875 82.328125 C 58.894531 82.546875 57.464844 82.585938 45.355469 82.585938 C 33.246094 82.585938 31.8125 82.546875 27.023438 82.328125 C 22.609375 82.128906 20.203125 81.394531 18.589844 80.757812 C 16.484375 79.941406 14.972656 78.949219 13.382812 77.359375 C 11.792969 75.765625 10.816406 74.257812 9.980469 72.148438 C 9.367188 70.558594 8.628906 68.152344 8.410156 63.71875 C 8.191406 58.925781 8.152344 57.496094 8.152344 45.386719 C 8.152344 33.277344 8.191406 31.84375 8.410156 27.050781 C 8.609375 22.636719 9.34375 20.230469 9.980469 18.621094 C 10.796875 16.511719 11.792969 15.003906 13.382812 13.410156 C 14.972656 11.820312 16.484375 10.847656 18.589844 10.011719 C 20.183594 9.394531 22.589844 8.660156 27.023438 8.441406 C 31.8125 8.222656 33.246094 8.183594 45.355469 8.183594 M 45.355469 0.0117188 C 33.027344 0.0117188 31.496094 0.0703125 26.644531 0.289062 C 21.8125 0.507812 18.511719 1.28125 15.628906 2.394531 C 12.644531 3.550781 10.121094 5.101562 7.59375 7.625 C 5.089844 10.152344 3.539062 12.675781 2.386719 15.660156 C 1.273438 18.542969 0.496094 21.84375 0.277344 26.675781 C 0.0585938 31.507812 0 33.058594 0 45.363281 C 0 57.691406 0.0585938 59.222656 0.277344 64.074219 C 0.496094 68.90625 1.273438 72.207031 2.386719 75.089844 C 3.539062 78.074219 5.089844 80.597656 7.617188 83.125 C 10.140625 85.648438 12.667969 87.199219 15.648438 88.355469 C 18.53125 89.46875 21.832031 90.242188 26.664062 90.460938 C 31.496094 90.679688 33.046875 90.738281 45.375 90.738281 C 57.703125 90.738281 59.234375 90.679688 64.085938 90.460938 C 68.917969 90.242188 72.21875 89.46875 75.101562 88.355469 C 78.082031 87.199219 80.609375 85.648438 83.132812 83.125 C 85.660156 80.597656 87.210938 78.074219 88.363281 75.089844 C 89.476562 72.207031 90.253906 68.90625 90.472656 64.074219 C 90.691406 59.242188 90.75 57.691406 90.75 45.363281 C 90.75 33.035156 90.691406 31.507812 90.472656 26.65625 C 90.253906 21.824219 89.476562 18.523438 88.363281 15.636719 C 87.210938 12.65625 85.660156 10.128906 83.132812 7.605469 C 80.609375 5.082031 78.082031 3.53125 75.101562 2.375 C 72.21875 1.261719 68.917969 0.488281 64.085938 0.269531 C 59.234375 0.0703125 57.683594 0.0117188 45.355469 0.0117188 " fill-opacity="1" fill-rule="nonzero"/></g><path fill="#FFF" d="M 45.355469 22.082031 C 32.492188 22.082031 22.070312 32.5 22.070312 45.363281 C 22.070312 58.230469 32.511719 68.667969 45.375 68.667969 C 58.238281 68.667969 68.679688 58.25 68.679688 45.363281 C 68.660156 32.5 58.21875 22.082031 45.355469 22.082031 M 45.355469 60.496094 C 37.003906 60.496094 30.242188 53.734375 30.242188 45.386719 C 30.242188 37.035156 37.003906 30.273438 45.355469 30.273438 C 53.707031 30.273438 60.46875 37.035156 60.46875 45.386719 C 60.488281 53.714844 53.707031 60.496094 45.355469 60.496094 " fill-opacity="1" fill-rule="nonzero"/><path fill="#FFF" d="M 75.023438 21.167969 C 75.023438 24.167969 72.574219 26.613281 69.574219 26.613281 C 66.570312 26.613281 64.125 24.167969 64.125 21.167969 C 64.125 18.164062 66.570312 15.71875 69.574219 15.71875 C 72.574219 15.71875 75.023438 18.144531 75.023438 21.167969 " fill-opacity="1" fill-rule="nonzero"/></svg>